<mxfile host="app.diagrams.net" modified="2024-01-22T10:08:31.700Z" agent="Mozilla/5.0 (Windows NT 10.0; Win64; x64) AppleWebKit/537.36 (KHTML, like Gecko) Chrome/119.0.0.0 Safari/537.36 OPR/105.0.0.0 (Edition Yx GX 03)" version="22.1.21" etag="Do3t6RulsM3zizLdDXls" type="github">
  <diagram name="Страница — 1" id="N0q-JfJuIebq7aSsYD1d">
    <mxGraphModel>
      <root>
        <mxCell id="0" />
        <mxCell id="1" parent="0" />
      </root>
    </mxGraphModel>
  </diagram>
</mxfile>
